<?xml version="1.0" encoding="UTF-8"?>
<svg id="Layer_1" data-name="Layer 1" xmlns="http://www.w3.org/2000/svg" viewBox="0 0 180.43 252">
  <defs>
    <style>
      .cls-1 {
        fill: #fff;
        stroke: #fff;
        stroke-miterlimit: 10;
        stroke-width: 6px;
      }
    </style>
  </defs>
  <path class="cls-1" d="M88.09,3.31c50.82-4.39,92.13,37.77,89.19,88.19-2.61,44.82-44.68,119.96-75.48,152.52-7.03,7.44-7.48,6.04-14.03-1C56.61,209.51,15.25,136.55,13.25,90.56,11.32,46.18,43.44,7.17,88.09,3.31ZM92.09,13.31c-33.36,1.31-61.92,26.74-67.52,59.48-7.78,45.5,30.53,110.7,57.31,146.14,1.82,2.41,12.36,16.36,13.82,16.05,28.32-36.59,60.94-83.35,69.3-129.76,8.75-48.59-20.81-93.96-72.91-91.91Z"/>
  <path class="cls-1" d="M92.07,54.3c41.78-4.06,54.44,57.12,14.77,69.77-51.16,16.32-66.66-64.73-14.77-69.77ZM76.65,72.37c-23.75,25,15.39,60.82,38.15,34.65,21.65-24.88-15.61-58.39-38.15-34.65Z"/>
</svg>